<svg xmlns="http://www.w3.org/2000/svg" xmlns:xlink="http://www.w3.org/1999/xlink" width="500" zoomAndPan="magnify" viewBox="0 0 375 374.999991" height="500" preserveAspectRatio="xMidYMid meet" version="1.0"><defs><g/></defs><g fill="#000000" fill-opacity="1"><g transform="translate(90.346537, 211.124122)"><g><path d="M 37.34375 0.8125 C 34.507812 0.8125 31.96875 0.191406 29.71875 -1.046875 C 27.476562 -2.285156 25.707031 -4.003906 24.40625 -6.203125 C 23.101562 -8.398438 22.453125 -10.894531 22.453125 -13.6875 L 22.453125 -34.3125 C 22.453125 -35.03125 22.269531 -35.679688 21.90625 -36.265625 C 21.550781 -36.847656 21.078125 -37.316406 20.484375 -37.671875 C 19.898438 -38.035156 19.25 -38.21875 18.53125 -38.21875 C 17.8125 -38.21875 17.160156 -38.035156 16.578125 -37.671875 C 15.992188 -37.316406 15.53125 -36.847656 15.1875 -36.265625 C 14.851562 -35.679688 14.6875 -35.03125 14.6875 -34.3125 L 14.6875 0 L 3.640625 0 L 3.640625 -33.5 C 3.640625 -36.332031 4.28125 -38.828125 5.5625 -40.984375 C 6.84375 -43.140625 8.617188 -44.847656 10.890625 -46.109375 C 13.160156 -47.367188 15.707031 -48 18.53125 -48 C 21.40625 -48 23.96875 -47.367188 26.21875 -46.109375 C 28.46875 -44.847656 30.242188 -43.140625 31.546875 -40.984375 C 32.847656 -38.828125 33.5 -36.332031 33.5 -33.5 L 33.5 -12.875 C 33.5 -12.15625 33.675781 -11.488281 34.03125 -10.875 C 34.394531 -10.269531 34.859375 -9.800781 35.421875 -9.46875 C 35.984375 -9.132812 36.601562 -8.96875 37.28125 -8.96875 C 38 -8.96875 38.660156 -9.132812 39.265625 -9.46875 C 39.867188 -9.800781 40.347656 -10.269531 40.703125 -10.875 C 41.066406 -11.488281 41.25 -12.15625 41.25 -12.875 L 41.25 -47.1875 L 52.234375 -47.1875 L 52.234375 -13.6875 C 52.234375 -10.894531 51.582031 -8.398438 50.28125 -6.203125 C 48.976562 -4.003906 47.203125 -2.285156 44.953125 -1.046875 C 42.710938 0.191406 40.175781 0.8125 37.34375 0.8125 Z M 37.34375 0.8125 "/></g></g></g><g fill="#000000" fill-opacity="1"><g transform="translate(140.756602, 211.124122)"><g><path d="M 16.71875 0 C 14.0625 0 11.65625 -0.613281 9.5 -1.84375 C 7.34375 -3.082031 5.625 -4.742188 4.34375 -6.828125 C 3.0625 -8.921875 2.421875 -11.296875 2.421875 -13.953125 C 2.421875 -15.929688 2.859375 -17.785156 3.734375 -19.515625 C 4.617188 -21.242188 5.800781 -22.738281 7.28125 -24 C 5.84375 -25.207031 4.707031 -26.640625 3.875 -28.296875 C 3.039062 -29.960938 2.625 -31.71875 2.625 -33.5625 C 2.625 -36.175781 3.253906 -38.503906 4.515625 -40.546875 C 5.773438 -42.585938 7.457031 -44.203125 9.5625 -45.390625 C 11.675781 -46.585938 14.015625 -47.1875 16.578125 -47.1875 L 36.46875 -47.1875 L 36.46875 -37.75 L 18.328125 -37.75 C 17.472656 -37.75 16.6875 -37.546875 15.96875 -37.140625 C 15.25 -36.734375 14.675781 -36.191406 14.25 -35.515625 C 13.820312 -34.847656 13.609375 -34.0625 13.609375 -33.15625 C 13.609375 -32.3125 13.820312 -31.539062 14.25 -30.84375 C 14.675781 -30.144531 15.25 -29.601562 15.96875 -29.21875 C 16.6875 -28.832031 17.472656 -28.640625 18.328125 -28.640625 L 34.171875 -28.640625 L 34.171875 -19.203125 L 18.671875 -19.203125 C 17.722656 -19.203125 16.867188 -18.976562 16.109375 -18.53125 C 15.347656 -18.082031 14.738281 -17.5 14.28125 -16.78125 C 13.832031 -16.0625 13.609375 -15.234375 13.609375 -14.296875 C 13.609375 -13.390625 13.832031 -12.566406 14.28125 -11.828125 C 14.738281 -11.085938 15.347656 -10.515625 16.109375 -10.109375 C 16.867188 -9.703125 17.722656 -9.5 18.671875 -9.5 L 36.46875 -9.5 L 36.46875 0 Z M 16.71875 0 "/></g></g></g><g fill="#000000" fill-opacity="1"><g transform="translate(174.318013, 211.124122)"><g><path d="M 2.90625 0 L 15.234375 -20.296875 C 13.035156 -21.191406 11.148438 -22.390625 9.578125 -23.890625 C 8.003906 -25.398438 6.773438 -27.207031 5.890625 -29.3125 C 5.015625 -31.425781 4.578125 -33.8125 4.578125 -36.46875 L 4.578125 -47.1875 L 15.90625 -47.1875 L 15.90625 -35.796875 C 15.90625 -34.628906 16.140625 -33.535156 16.609375 -32.515625 C 17.085938 -31.503906 17.765625 -30.671875 18.640625 -30.015625 C 19.515625 -29.367188 20.535156 -28.957031 21.703125 -28.78125 L 32.625 -47.1875 L 45.234375 -47.1875 L 32.890625 -27.296875 C 35.359375 -26.578125 37.515625 -25.453125 39.359375 -23.921875 C 41.203125 -22.398438 42.617188 -20.523438 43.609375 -18.296875 C 44.597656 -16.078125 45.09375 -13.570312 45.09375 -10.78125 L 45.09375 0 L 33.765625 0 L 33.765625 -11.328125 C 33.765625 -13.347656 33.132812 -15.066406 31.875 -16.484375 C 30.625 -17.898438 28.875 -18.628906 26.625 -18.671875 L 15.5 0 Z M 2.90625 0 "/></g></g></g><g fill="#000000" fill-opacity="1"><g transform="translate(216.303751, 211.124122)"><g><path d="M 28.375 0 C 25.5 0 22.972656 -0.640625 20.796875 -1.921875 C 18.617188 -3.203125 16.910156 -4.921875 15.671875 -7.078125 C 14.429688 -9.234375 13.8125 -11.640625 13.8125 -14.296875 L 13.8125 -37.75 L 1.015625 -37.75 L 1.015625 -47.1875 L 37.875 -47.1875 L 37.875 -37.75 L 25.140625 -37.75 L 25.140625 -13.28125 C 25.140625 -12.25 25.5 -11.347656 26.21875 -10.578125 C 26.9375 -9.816406 27.835938 -9.4375 28.921875 -9.4375 L 32.625 -9.4375 L 32.625 0 Z M 28.375 0 "/></g></g></g></svg>